<svg width="139" height="95" viewBox="0 0 139 95" fill="none" xmlns="http://www.w3.org/2000/svg">
<g clip-path="url(#clip0)">
<path fill-rule="evenodd" clip-rule="evenodd" d="M27.0551 27.5669H99.1552C102.177 27.5669 104.636 30.0409 104.636 33.0803V33.151C104.988 33.151 105.269 33.0803 105.62 33.0803H111.804C118.269 33.0803 121.502 38.8057 123.61 44.9553L128.881 60.5059L138.086 66.5141L137.805 66.5847C138.508 67.0089 139 67.7157 139 68.6346V81.6406C139 82.9129 137.946 83.9731 136.681 83.9731H129.302C129.302 77.2581 123.891 71.8154 117.215 71.8154C110.539 71.8154 105.128 77.2581 105.128 83.9731H99.2254H96.1334H58.0455C58.0455 77.2581 52.6344 71.8154 45.9585 71.8154C39.2826 71.8154 33.8716 77.2581 33.8716 83.9731H27.1253C24.1036 83.9731 21.644 81.4992 21.644 78.4598V33.0803C21.5738 30.0409 24.0333 27.5669 27.0551 27.5669Z" fill="#812C93"/>
<path fill-rule="evenodd" clip-rule="evenodd" d="M106.394 37.8869C119.324 37.0386 123.4 58.8802 123.47 60.5766C123.47 61.4248 122.838 62.061 121.994 62.061H106.394C105.55 62.061 104.918 61.4248 104.918 60.5766V39.3712C104.918 38.523 105.55 37.9575 106.394 37.8869Z" fill="#52BEC8"/>
<path fill-rule="evenodd" clip-rule="evenodd" d="M45.9587 72.9463C52.0022 72.9463 56.9213 77.8942 56.9213 83.9731C56.9213 90.052 52.0022 94.9999 45.9587 94.9999C39.9152 94.9999 34.9961 90.052 34.9961 83.9731C34.9961 77.8942 39.9152 72.9463 45.9587 72.9463ZM45.9587 78.6717C43.0775 78.6717 40.6882 81.075 40.6882 83.9731C40.6882 86.8712 43.0775 89.2744 45.9587 89.2744C48.8399 89.2744 51.2292 86.8712 51.2292 83.9731C51.2292 81.0043 48.8399 78.6717 45.9587 78.6717Z" fill="#333333"/>
<path fill-rule="evenodd" clip-rule="evenodd" d="M117.215 72.9463C123.258 72.9463 128.177 77.8942 128.177 83.9731C128.177 90.052 123.258 94.9999 117.215 94.9999C111.171 94.9999 106.252 90.052 106.252 83.9731C106.252 77.8942 111.171 72.9463 117.215 72.9463ZM117.215 78.6717C114.333 78.6717 111.944 81.075 111.944 83.9731C111.944 86.8712 114.333 89.2744 117.215 89.2744C120.096 89.2744 122.485 86.8712 122.485 83.9731C122.485 81.0043 120.096 78.6717 117.215 78.6717Z" fill="#333333"/>
<path fill-rule="evenodd" clip-rule="evenodd" d="M55.5151 64.04C54.1096 62.6263 54.8826 59.4455 57.3421 56.9009C53.8285 56.8302 51.0176 55.2044 51.0176 53.1546C51.0176 51.1047 53.8285 49.479 57.3421 49.4083C54.8826 46.9344 54.1096 43.7535 55.5151 42.2692C56.9205 40.8555 60.0828 41.633 62.6126 44.107C62.6829 40.5727 64.2992 37.7454 66.3371 37.7454C68.375 37.7454 69.9913 40.5727 70.0616 44.107C72.5211 41.633 75.6834 40.8555 77.1591 42.2692C78.5646 43.6829 77.7916 46.8637 75.332 49.4083C78.8457 49.479 81.6566 51.1047 81.6566 53.1546C81.6566 55.2044 78.8457 56.8302 75.332 56.9009C77.7916 59.3748 78.5646 62.5556 77.1591 64.04C75.7537 65.4537 72.5914 64.6762 70.0616 62.2022C69.9913 65.7364 68.375 68.5638 66.3371 68.5638C64.2992 68.5638 62.6829 65.7364 62.6126 62.2022C60.0828 64.6055 56.9908 65.4537 55.5151 64.04Z" fill="#E0A2C9"/>
<path fill-rule="evenodd" clip-rule="evenodd" d="M66.3368 58.6681C69.3585 58.6681 71.8181 56.1942 71.8181 53.1547C71.8181 50.1153 69.3585 47.6414 66.3368 47.6414C63.315 47.6414 60.8555 50.1153 60.8555 53.1547C60.8555 56.1942 63.315 58.6681 66.3368 58.6681Z" fill="#FFE400"/>
<path fill-rule="evenodd" clip-rule="evenodd" d="M88.1931 43.6123C83.6253 41.3504 78.7765 43.683 77.2305 48.4895C81.8685 50.4687 86.7173 48.6309 88.1931 43.6123Z" fill="#CCD133"/>
<path fill-rule="evenodd" clip-rule="evenodd" d="M47.293 45.2379C50.5958 43.6122 54.0392 45.3086 55.0933 48.7015C51.7904 50.1858 48.2768 48.8428 47.293 45.2379Z" fill="#CCD133"/>
<path fill-rule="evenodd" clip-rule="evenodd" d="M61.8394 64.3936C62.8935 67.7864 60.7853 70.9672 57.3419 71.462C56.4284 68.0691 58.1852 64.8883 61.8394 64.3936Z" fill="#945CA2"/>
<path fill-rule="evenodd" clip-rule="evenodd" d="M84.82 61.2128C83.9064 57.7493 80.463 56.2649 77.2305 57.6079C78.2846 61.0714 81.5171 62.7679 84.82 61.2128Z" fill="#945CA2"/>
<path fill-rule="evenodd" clip-rule="evenodd" d="M7.23721 46.2275H16.2322C17.2863 46.2275 18.1295 47.0758 18.1295 48.136C18.1295 49.1963 17.2863 50.0445 16.2322 50.0445H7.23721C6.18312 50.0445 5.33984 49.1963 5.33984 48.136C5.33984 47.0758 6.25339 46.2275 7.23721 46.2275Z" fill="#945CA2"/>
<path fill-rule="evenodd" clip-rule="evenodd" d="M1.89737 53.3667H16.3033C17.3574 53.3667 18.2007 54.2149 18.2007 55.2752C18.2007 56.3354 17.3574 57.1837 16.3033 57.1837H1.89737C0.843276 57.1837 0 56.3354 0 55.2752C0 54.2856 0.843276 53.3667 1.89737 53.3667Z" fill="#CCD133"/>
<path fill-rule="evenodd" clip-rule="evenodd" d="M8.01065 60.2939H16.3029C17.357 60.2939 18.2002 61.1422 18.2002 62.2024C18.2002 63.2627 17.357 64.1109 16.3029 64.1109H8.01065C6.95656 64.1109 6.11328 63.2627 6.11328 62.2024C6.11328 61.1422 6.95656 60.2939 8.01065 60.2939Z" fill="#E0A2C9"/>
<path fill-rule="evenodd" clip-rule="evenodd" d="M78.7764 25.0222C78.2142 24.4568 78.5655 23.1844 79.5494 22.1242C78.1439 22.1242 77.0195 21.4173 77.0195 20.6398C77.0195 19.7916 78.1439 19.1554 79.5494 19.1554C78.5655 18.1658 78.2142 16.8935 78.7764 16.2573C79.3385 15.6919 80.6035 16.0453 81.6576 17.0349C81.6576 15.6212 82.3603 14.4902 83.1333 14.4902C83.9766 14.4902 84.609 15.6212 84.609 17.0349C85.5929 16.0453 86.8578 15.6919 87.4902 16.2573C88.0524 16.8228 87.701 18.0951 86.7172 19.1554C88.1227 19.1554 89.2471 19.8623 89.2471 20.6398C89.2471 21.488 88.1227 22.1242 86.7172 22.1242C87.701 23.1137 88.0524 24.3861 87.4902 25.0222C86.928 25.5877 85.6631 25.2343 84.609 24.2447C84.609 25.6584 83.9063 26.7893 83.1333 26.7893C82.29 26.7893 81.6576 25.6584 81.6576 24.2447C80.6035 25.305 79.3385 25.5877 78.7764 25.0222ZM82.0792 20.2157C82.1495 20.357 82.2197 20.4984 82.2197 20.6398C82.2197 20.7812 82.1495 20.9225 82.0792 21.0639C82.2197 21.1346 82.3603 21.2053 82.5008 21.2759C82.6414 21.4173 82.7117 21.5587 82.7117 21.7001C82.8522 21.6294 82.9927 21.5587 83.1333 21.5587C83.2738 21.5587 83.4144 21.6294 83.5549 21.7001C83.6252 21.5587 83.6955 21.4173 83.7657 21.2759C83.9063 21.1346 84.0468 21.0639 84.1874 21.0639C84.1171 20.9225 84.0468 20.7812 84.0468 20.6398C84.0468 20.4984 84.1171 20.357 84.1874 20.2157C84.0468 20.145 83.9063 20.0743 83.7657 20.0036C83.6252 19.8623 83.5549 19.7209 83.5549 19.5795C83.4144 19.6502 83.2738 19.7209 83.1333 19.7209C82.9927 19.7209 82.8522 19.6502 82.7117 19.5795C82.6414 19.7209 82.5711 19.8623 82.5008 20.0036C82.3603 20.0743 82.2197 20.145 82.0792 20.2157Z" fill="#EB5961"/>
<path fill-rule="evenodd" clip-rule="evenodd" d="M83.1335 22.8312C84.3282 22.8312 85.312 21.8416 85.312 20.64C85.312 19.4383 84.3282 18.4487 83.1335 18.4487C81.9389 18.4487 80.9551 19.4383 80.9551 20.64C80.9551 21.8416 81.9389 22.8312 83.1335 22.8312Z" fill="#FFE400"/>
<path fill-rule="evenodd" clip-rule="evenodd" d="M53.1961 12.2284C52.5637 11.5922 52.915 10.1079 54.0394 8.97691C52.4231 8.97691 51.1582 8.19938 51.1582 7.28048C51.1582 6.36158 52.4231 5.58405 54.0394 5.58405C52.915 4.4531 52.5637 2.96873 53.1961 2.33257C53.8286 1.69641 55.3043 2.04983 56.4287 3.18078C56.4287 1.55504 57.2017 0.282715 58.1152 0.282715C59.0288 0.282715 59.8018 1.55504 59.8018 3.18078C60.9261 2.04983 62.4019 1.69641 63.0343 2.33257C63.6668 2.96873 63.3154 4.4531 62.1911 5.58405C63.8073 5.58405 65.0723 6.36158 65.0723 7.28048C65.0723 8.19938 63.8073 8.97691 62.1911 8.97691C63.3154 10.1079 63.6668 11.5922 63.0343 12.2284C62.4019 12.8646 60.9261 12.5111 59.8018 11.3802C59.8018 13.0059 59.0288 14.2783 58.1152 14.2783C57.2017 14.2783 56.4287 13.0059 56.4287 11.3802C55.3043 12.5111 53.8286 12.8646 53.1961 12.2284ZM56.9206 6.71501C56.9909 6.85638 57.0611 7.06843 57.0611 7.2098C57.0611 7.42185 56.9909 7.56322 56.9206 7.70459C57.1314 7.77527 57.272 7.84596 57.4125 7.98733C57.553 8.1287 57.6233 8.27007 57.6936 8.48212C57.8341 8.41144 58.045 8.34075 58.1855 8.34075C58.3963 8.34075 58.5369 8.41144 58.6774 8.48212C58.7477 8.27007 58.818 8.1287 58.9585 7.98733C59.0991 7.84596 59.2396 7.77527 59.4504 7.70459C59.3801 7.56322 59.3099 7.35117 59.3099 7.2098C59.3099 6.99774 59.3801 6.85638 59.4504 6.71501C59.2396 6.64432 59.0991 6.57364 58.9585 6.43227C58.818 6.2909 58.7477 6.14953 58.6774 5.93748C58.5369 6.00816 58.3261 6.07885 58.1855 6.07885C57.9747 6.07885 57.8341 6.00816 57.6936 5.93748C57.6233 6.14953 57.553 6.2909 57.4125 6.43227C57.272 6.57364 57.0611 6.64432 56.9206 6.71501Z" fill="#E0A2C9"/>
<path fill-rule="evenodd" clip-rule="evenodd" d="M58.1861 9.75433C59.5915 9.75433 60.7159 8.62337 60.7159 7.20968C60.7159 5.79599 59.5915 4.66504 58.1861 4.66504C56.7806 4.66504 55.6562 5.79599 55.6562 7.20968C55.6562 8.62337 56.7806 9.75433 58.1861 9.75433Z" fill="#FFE400"/>
<path fill-rule="evenodd" clip-rule="evenodd" d="M31.6924 20.145C31.1302 19.5796 31.4816 18.3072 32.4654 17.247C31.0599 17.247 29.9355 16.5401 29.9355 15.7626C29.9355 14.9144 31.0599 14.2782 32.4654 14.2782C31.4816 13.2886 31.1302 12.0163 31.6924 11.3802C32.2546 10.8147 33.5195 11.1681 34.5736 12.1577C34.5736 10.744 35.2763 9.61304 36.0493 9.61304C36.8926 9.61304 37.525 10.744 37.525 12.1577C38.5089 11.1681 39.7738 10.8147 40.4062 11.3802C40.9684 11.9456 40.617 13.2179 39.6332 14.2782C41.0387 14.2782 42.1631 14.9851 42.1631 15.7626C42.1631 16.6108 41.0387 17.247 39.6332 17.247C40.617 18.2365 40.9684 19.5089 40.4062 20.145C39.844 20.7105 38.5791 20.3571 37.525 19.3675C37.525 20.7812 36.8223 21.9121 36.0493 21.9121C35.206 21.9121 34.5736 20.7812 34.5736 19.3675C33.5195 20.3571 32.2546 20.7105 31.6924 20.145ZM34.9249 15.2678C34.9952 15.4092 35.0655 15.5505 35.0655 15.6919C35.0655 15.8333 34.9952 15.9746 34.9249 16.116C35.0655 16.1867 35.206 16.2574 35.3466 16.3281C35.4871 16.4694 35.5574 16.6108 35.5574 16.7522C35.6979 16.6815 35.8385 16.6108 35.979 16.6108C36.1196 16.6108 36.2601 16.6815 36.4007 16.7522C36.4709 16.6108 36.5412 16.4694 36.6115 16.3281C36.752 16.1867 36.8926 16.116 37.0331 16.116C36.9628 15.9746 36.8926 15.8333 36.8926 15.6919C36.8926 15.5505 36.9628 15.4092 37.0331 15.2678C36.8926 15.1971 36.752 15.1264 36.6115 15.0557C36.4709 14.9144 36.4007 14.773 36.4007 14.6316C36.2601 14.7023 36.1196 14.773 35.979 14.773C35.8385 14.773 35.6979 14.7023 35.5574 14.6316C35.4871 14.773 35.4168 14.9144 35.3466 15.0557C35.206 15.1971 35.0655 15.2678 34.9249 15.2678Z" fill="#EB5961"/>
<path fill-rule="evenodd" clip-rule="evenodd" d="M36.0492 17.954C37.2438 17.954 38.2277 16.9644 38.2277 15.7628C38.2277 14.5611 37.2438 13.5715 36.0492 13.5715C34.8546 13.5715 33.8707 14.5611 33.8707 15.7628C33.8005 16.9644 34.7843 17.954 36.0492 17.954Z" fill="#FFE400"/>
<path fill-rule="evenodd" clip-rule="evenodd" d="M68.0234 14.7731C68.2343 17.8832 70.9046 19.721 73.9264 19.0849C73.575 15.9747 71.1154 13.9956 68.0234 14.7731Z" fill="#CCD133"/>
<path fill-rule="evenodd" clip-rule="evenodd" d="M55.2344 22.4777C55.4452 19.3675 58.1156 17.5297 61.1373 18.1659C60.7157 21.276 58.2561 23.2552 55.2344 22.4777Z" fill="#945CA2"/>
<path fill-rule="evenodd" clip-rule="evenodd" d="M42.7266 0.141256C42.9374 3.25138 45.6078 5.08917 48.6295 4.45301C48.2781 1.41358 45.8186 -0.565589 42.7266 0.141256Z" fill="#CCD133"/>
<path fill-rule="evenodd" clip-rule="evenodd" d="M46.873 17.3177C47.0136 15.6213 48.4191 14.6317 50.0353 14.9851C49.8245 16.6108 48.4893 17.6711 46.873 17.3177Z" fill="#945CA2"/>
<path fill-rule="evenodd" clip-rule="evenodd" d="M29.9357 9.04766C29.7952 7.35124 28.3897 6.36165 26.7734 6.71507C26.9843 8.34082 28.2492 9.40109 29.9357 9.04766Z" fill="#945CA2"/>
<path fill-rule="evenodd" clip-rule="evenodd" d="M24.174 17.0348C24.0335 18.7312 22.628 19.7208 21.0117 19.3674C21.2225 17.7417 22.5577 16.6814 24.174 17.0348Z" fill="#945CA2"/>
</g>
<defs>
<clipPath id="clip0">
<rect width="139" height="95" fill="white"/>
</clipPath>
</defs>
</svg>
