<svg xmlns="http://www.w3.org/2000/svg" id="Group_62429" width="181.052" height="52.928" viewBox="0 0 181.052 52.928">
    <defs>
        <clipPath id="clip-path">
            <path id="Rectangle_3538" fill="none" d="M0 0H181.052V52.928H0z"/>
        </clipPath>
        <style>
            .cls-3{fill:#00596c}
        </style>
    </defs>
    <g id="Group_62429-2" clip-path="url(#clip-path)">
        <path id="Path_8695" d="M121.581.372A26.437 26.437 0 0 0 105.7 9.217q-.48.556-.928 1.141c-.149.194-.287.4-.43.593s-.289.389-.425.588c-.206.3-.4.611-.594.921-.063.1-.13.2-.192.3-.227.375-.442.757-.65 1.143-.021.039-.044.076-.064.115a26.6 26.6 0 0 0-2.155 5.391 21.634 21.634 0 0 0 2.471-.471l.344-.089c.189-.051.377-.1.559-.158.2-.06.4-.124.6-.191q.175-.475.371-.939l.012-.028q.185-.439.388-.868l.051-.108q.189-.4.392-.783c.032-.062.066-.123.1-.185.126-.234.255-.467.389-.7.052-.089.105-.176.159-.264.122-.2.245-.405.374-.6.078-.121.159-.239.239-.358.112-.166.223-.333.339-.5s.243-.329.366-.493c.087-.115.171-.232.26-.346q.329-.42.678-.826a23.11 23.11 0 0 1 3.683-3.432l.023-.019a22.746 22.746 0 0 1 7.508-3.668 22.8 22.8 0 0 1-7.119 11.217c-.034.029-.071.056-.105.085a22.348 22.348 0 0 1-2.3 1.723l-.039.024q-.616.4-1.26.763-.665.373-1.358.706l-.241.117q-.312.144-.628.279c-.154.066-.31.13-.465.192l-.1.041-.134.051c-.167.065-.334.13-.5.191-.2.071-.391.139-.588.2s-.372.121-.56.178l-.078.025-.109.031c-.167.049-.334.1-.5.143l-.355.091a23.1 23.1 0 0 1-3.056.567c-.06.007-.121.009-.181.015-.09.008-.18.017-.271.024l-.408.035c-.141.014-.281.027-.423.035-.382.021-.766.03-1.148.033h-.145c-.257 0-.512-.012-.768-.022a28.127 28.127 0 0 1 .453 3.517c.12 0 .239.006.358.006q.595 0 1.188-.029l.365-.023c.221-.013.441-.036.661-.055.189-.016.379-.028.567-.048.366-.039.729-.088 1.091-.142l.11-.014c.8-.123 1.593-.282 2.37-.477l.12-.03c.812-.207 1.62-.454 2.441-.748q.383-.139.761-.287v.006l.344-.143.087-.036a26.355 26.355 0 0 0 6.55-3.926c.183-.15.368-.3.547-.454a26.419 26.419 0 0 0 8.845-15.878l.163-1.066.2-1.3z" class="cls-3" transform="translate(-71.027)"/>
        <path id="Path_8696" d="M2.374 130.691a26.276 26.276 0 0 0 8.777-3.045 26.494 26.494 0 0 0 7.1-5.8q.48-.557.929-1.141c.149-.194.287-.4.43-.593s.289-.389.425-.588c.206-.3.4-.611.593-.921.063-.1.13-.2.192-.3.227-.375.442-.757.65-1.143l.065-.114a26.6 26.6 0 0 0 2.155-5.391 21.633 21.633 0 0 0-2.471.471l-.344.089c-.189.051-.378.1-.559.158-.2.061-.4.124-.6.192q-.175.475-.371.939l-.012.028q-.185.439-.388.868l-.051.108q-.189.4-.392.783c-.032.062-.066.123-.1.185-.126.234-.255.467-.389.7-.052.089-.105.176-.159.264-.122.2-.245.405-.374.6-.078.121-.159.239-.239.358-.112.166-.223.333-.34.5s-.243.329-.366.493c-.087.115-.17.232-.26.346q-.329.42-.678.826a23.111 23.111 0 0 1-3.683 3.432l-.023.019a22.749 22.749 0 0 1-7.508 3.668 22.8 22.8 0 0 1 7.119-11.214c.034-.029.071-.056.105-.085a22.346 22.346 0 0 1 2.3-1.723l.039-.024q.616-.4 1.26-.763.665-.373 1.358-.706l.241-.117q.312-.144.628-.279c.154-.066.309-.13.465-.193l.1-.041.134-.051c.167-.065.334-.13.5-.191.2-.071.391-.139.588-.2s.372-.121.56-.178l.079-.025.109-.031c.167-.049.334-.1.5-.143l.356-.091a23.094 23.094 0 0 1 3.056-.567c.06-.007.121-.009.181-.015.09-.008.18-.017.271-.024l.408-.035c.141-.014.281-.027.422-.035.382-.021.767-.03 1.148-.033h.145c.257 0 .512.012.768.022a28.177 28.177 0 0 1-.454-3.517c-.119 0-.238-.006-.357-.006q-.595 0-1.188.029l-.365.023c-.221.013-.441.036-.662.055-.189.016-.379.028-.567.048-.365.039-.729.088-1.091.142l-.11.014c-.8.123-1.594.282-2.37.477l-.12.03c-.812.207-1.62.454-2.441.748q-.383.139-.761.287v-.006l-.344.143-.087.036a26.355 26.355 0 0 0-6.55 3.926c-.183.15-.368.3-.547.454a26.419 26.419 0 0 0-8.836 15.866L.2 129.761l-.2 1.3z" class="cls-3" transform="translate(0 -78.136)"/>
        <path id="Path_8697" d="M9.218 18.252a26.523 26.523 0 0 0 10.192 5.439 21.661 21.661 0 0 0-.471-2.472l-.088-.344c-.051-.189-.1-.378-.159-.559-.06-.2-.124-.4-.192-.6a22.721 22.721 0 0 1-6.994-4.116A22.809 22.809 0 0 1 4.387 4.386 22.8 22.8 0 0 1 15.6 11.5a22.834 22.834 0 0 1 3.3 5.063l.117.241q.144.312.278.628.122.281.235.565.125.316.241.636c.037.1.071.2.106.3l.1.281q.107.319.2.641.09.3.172.607l.092.358a23.1 23.1 0 0 1 .566 3.055c.017.151.029.3.04.454l.035.408c.013.141.027.281.035.423.021.382.03.766.033 1.148v.145c0 .151-.009.3-.013.451.335-.064.671-.127 1.009-.179l.117-.015c.425-.063.807-.113 1.168-.152.141-.015.283-.026.425-.037l.182-.015.188-.017q.213-.02.427-.035c0-.411-.011-.821-.03-1.231l-.023-.365a26.388 26.388 0 0 0-.736-4.8l-.029-.12c-.207-.812-.454-1.62-.748-2.441q-.139-.383-.287-.761h.007l-.179-.431a26.338 26.338 0 0 0-4.38-7.1A26.413 26.413 0 0 0 2.374.371L0 0l.372 2.373a26.419 26.419 0 0 0 8.846 15.879" class="cls-3" transform="translate(0 .001)"/>
        <path id="Path_8698" d="M121.842 106.577a26.528 26.528 0 0 0-10.193-5.439 21.713 21.713 0 0 0 .471 2.472l.089.344c.051.189.1.377.158.559.061.2.124.4.192.6a22.853 22.853 0 0 1 14.113 15.329 22.856 22.856 0 0 1-14.515-12.182l-.117-.242q-.144-.312-.278-.628-.122-.281-.235-.565-.125-.316-.241-.636c-.037-.1-.071-.2-.106-.3l-.1-.281q-.107-.32-.2-.641-.09-.3-.172-.607l-.092-.358a23.089 23.089 0 0 1-.567-3.055c-.017-.15-.028-.3-.04-.454l-.035-.407c-.014-.141-.027-.281-.035-.423-.021-.382-.029-.766-.033-1.148v-.145c0-.151.009-.3.012-.451-.335.064-.671.127-1.009.179l-.117.015c-.424.063-.807.113-1.168.152-.141.015-.283.026-.425.037l-.182.015-.189.017c-.142.013-.284.024-.426.034 0 .411.011.821.03 1.231l.023.365a26.412 26.412 0 0 0 .736 4.8l.03.12c.207.812.454 1.62.748 2.441q.139.383.288.761h-.007l.179.431a26.417 26.417 0 0 0 20.258 15.943l2.374.372-.373-2.374a26.416 26.416 0 0 0-8.845-15.878" class="cls-3" transform="translate(-78.131 -71.901)"/>
        <path id="Path_8699" d="M626.978 60.871h-6.244v18.151h6.244c5.455 0 9.894-3.619 9.894-9.075s-4.439-9.075-9.894-9.075m-.032 15.365h-3.407v-12.58h3.407c3.927 0 7.122 2.362 7.122 6.289s-3.194 6.289-7.122 6.289" class="cls-3" transform="translate(-455.821 -44.699)"/>
        <path id="Path_8700" d="M239.18 79.023h2.786a7.79 7.79 0 0 1 7.781-7.781h.765v-2.787h-.765a10.53 10.53 0 0 0-7.781 3.442v-8.24h9.751v-2.785H239.18z" class="cls-3" transform="translate(-175.636 -44.7)"/>
        <path id="Path_8701" d="M294.4 60.872h-2.786v18.151h11.1v-2.786H294.4z" class="cls-3" transform="translate(-214.138 -44.7)"/>
        <path id="Path_8702" d="M339.777 60.8a8.842 8.842 0 0 0-8.832 8.832v.526a8.832 8.832 0 1 0 17.663 0v-.526a8.842 8.842 0 0 0-8.832-8.832m5.942 9.358a5.942 5.942 0 1 1-11.883 0v-.526a5.942 5.942 0 1 1 11.883 0z" class="cls-3" transform="translate(-243.021 -44.646)"/>
        <path id="Path_8703" d="M448.312 60.8l-2.28 5.309 1.516 3.53 3.8-8.839z" class="cls-3" transform="translate(-327.533 -44.646)"/>
        <path id="Path_8704" d="M419.99 60.8l-6.146 14.31-2.35-5.472-1.516-3.53L407.7 60.8l-3.03.006 3.794 8.834-2.349 5.471-6.148-14.311h-3.033l7.8 18.152h2.764l2.484-5.783 2.484 5.783h2.764l7.8-18.152z" class="cls-3" transform="translate(-291.479 -44.646)"/>
        <path id="Path_8705" d="M490.014 60.872l-6.722 15.651a9.915 9.915 0 0 0-.435 1.013l-.631 1.469h3.033l.8-1.863a7.3 7.3 0 0 1 6.214-3.5h2.959l2.3 5.361h3.033l-7.788-18.133zm2.258 10.046a9.945 9.945 0 0 0-3.88.791l3-7 2.664 6.2z" class="cls-3" transform="translate(-354.111 -44.7)"/>
        <path id="Path_8706" d="M573.117 67.383a6.519 6.519 0 0 0-6.511-6.511h-7.419v18.151h2.786v-5.128h4.055l3.278 5.111h3.367a3.585 3.585 0 0 1-.318-.407l-3.305-5.184a6.519 6.519 0 0 0 4.067-6.031m-6.511 3.725h-4.633v-7.45h4.633a3.725 3.725 0 0 1 0 7.45" class="cls-3" transform="translate(-410.625 -44.7)"/>
    </g>
</svg>
